<svg width="357" height="98" viewBox="0 0 357 98" fill="none" xmlns="http://www.w3.org/2000/svg">
<g clip-path="url(#clip0_5_65)">
<path d="M347.9 8.28174H9.80005V89.7184H347.9V8.28174Z" fill="#EFFFE0"/>
<path d="M16.45 1.03516H1.05005V16.2183H16.45V1.03516Z" fill="white" stroke="#468585" stroke-width="3"/>
<path d="M16.45 81.7817H1.05005V96.9648H16.45V81.7817Z" fill="white" stroke="#468585" stroke-width="3"/>
<path d="M355.95 81.7817H340.55V96.9648H355.95V81.7817Z" fill="white" stroke="#468585" stroke-width="3"/>
<path d="M355.95 1.03516H340.55V16.2183H355.95V1.03516Z" fill="white" stroke="#468585" stroke-width="3"/>
<path d="M339.5 6.2113H16.8V7.59159H339.5V6.2113Z" fill="#468585"/>
<path d="M338.8 88.338H16.8V89.7183H338.8V88.338Z" fill="#468585"/>
<path d="M8.3999 17.2535L8.3999 81.4366H9.7999L9.7999 17.2535H8.3999Z" fill="#468585"/>
<path d="M347.9 17.2535V81.4366H349.3V17.2535H347.9Z" fill="#468585"/>
</g>
<defs>
<clipPath id="clip0_5_65">
<rect width="357" height="98" fill="white"/>
</clipPath>
</defs>
</svg>
